# xmcd CD database file
#
# Track frame offsets:
#	150
#	13938
#	31131
#	45964
#	64961
#	78660
#	88152
#	105320
#	116781
#	130981
#	146056
#	159305
#	170851
#	183903
#	193576
#	205926
#	218669
#	229241
#	240400
#	250255
#
# Disc length: 3536 seconds
#
# Revision: 0
# Processed by: cddbd v1.5.2PL0 Copyright (c) Steve Scherf et al.
# Submitted via: Feurio! 1.68 - http://www.feurio.com
#
DISCID=180dce14
DTITLE=Various Artist - Diamonds Of Western Hits CD 1
DYEAR=1900
DGENRE=Country
TTITLE0=Eddie Rabbitt - Drivin' My Life Away
TTITLE1=The Oak Ridge Boys - Ain't No Short Way Home
TTITLE2=Exile - Keep It In The Middle Of The Road
TTITLE3=Juice Newton - Ride 'Em Cowboy
TTITLE4=The Gattlin Brothers - Houston (Means I'm One Day Closer To You)
TTITLE5=Johnny Rodriguez - Riding My Thumb To Mexico
TTITLE6=Eddie Raven - Joe Knows How To Life
TTITLE7=Roy Clark - Thank God And Greyhound
TTITLE8=Ediie Raven - Rip Rap Road
TTITLE9=Jerry Lee Lewis - Turn Your Radio On
TTITLE10=The Tennessee Boys - Train To Santa Fe (instr.)
TTITLE11=Bobby Bare - Music City U.S.A.
TTITLE12=Don Williams - Ruby Tuesday (with The Pozo Seco Singers)
TTITLE13=Ned Miller - From A Jack To A King
TTITLE14=Lynn Anderson - Stand By Your Man
TTITLE15=Lee Hazlewood - These Boots Are Made For Walking
TTITLE16=Gene Simmons - Way Down Yonder In Baton Rouge
TTITLE17=Roger Miller - King Of The Road
TTITLE18=Johnny Cash - Rock Island Line
TTITLE19=Sammy's Saloon - Highway Calling
EXTD=
EXTT0=
EXTT1=
EXTT2=
EXTT3=
EXTT4=
EXTT5=
EXTT6=
EXTT7=
EXTT8=
EXTT9=
EXTT10=
EXTT11=
EXTT12=
EXTT13=
EXTT14=
EXTT15=
EXTT16=
EXTT17=
EXTT18=
EXTT19=
PLAYORDER=
